<?xml version="1.0" encoding="utf-8"?>
<!-- Generator: Adobe Illustrator 22.1.0, SVG Export Plug-In . SVG Version: 6.00 Build 0)  -->
<svg version="1.1" xmlns="http://www.w3.org/2000/svg" xmlns:xlink="http://www.w3.org/1999/xlink" x="0px" y="0px"
	 viewBox="0 0 800 400" style="enable-background:new 0 0 800 400;" xml:space="preserve">
<style type="text/css">
	.st0{fill:#08B1D9;}
	.st1{fill:#0AB1D8;}
	.st2{fill:#B0DCE2;}
	.st3{fill:#AFDCE2;}
	.st4{fill:#FABD6A;}
	.st5{fill:#FABC68;}
	.st6{fill:#E8443B;}
	.st7{fill:#ADDBE2;}
	.st8{fill:#FAB967;}
	.st9{fill:#B1DDE1;}
	.st10{fill:#0BB2D9;}
	.st11{fill:#252122;}
	.st12{fill:#262324;}
	.st13{fill:#AEDBE2;}
	.st14{fill:#A8DAE1;}
	.st15{fill:#ACDADF;}
	.st16{fill:#F9B664;}
	.st17{fill:#FAB965;}
	.st18{fill:#E94C3B;}
	.st19{fill:#FAB966;}
	.st20{fill:#E9473A;}
	.st21{fill:#EFEFF0;}
	.st22{fill:#242121;}
	.st23{fill:#12100B;stroke:#02B1D9;stroke-width:37.5173;stroke-linejoin:bevel;}
	.st24{fill:#12100B;stroke:#FAB966;stroke-width:37.5173;stroke-linejoin:bevel;}
	.st25{fill:#12100B;stroke:#E8443B;stroke-width:37.5173;stroke-linejoin:bevel;}
	.st26{fill:#FFFFFF;}
	.st27{display:none;}
</style>
<g id="Layer_1">
	<g>
		<path class="st0" d="M130.5,197.5c-13,0-25.9-0.1-38.9-0.1c-1.2,0-2.5-0.1-3.7-0.3c-7-1.2-12.2-7.1-12.2-14.2
			c-0.1-24.1-0.1-48.1,0-72.2c0-8.1,6.7-14.4,14.9-14.5c14.8,0,29.6,0,44.4,0c0.8,0,1.6-0.1,2.5-0.1c4.1,0,8.2,0,12.4,0
			c15.4,0,30.7,0,46.1,0.1c1.1,0,2.2,0.1,3.3,0.2c7.2,1.2,12.4,7.2,12.4,14.5c0,23.9,0.1,47.8,0,71.6c0,8.3-6.6,14.7-15.1,14.7
			c-12.4,0-24.7,0-37.1,0c-0.8,0-1.5,0-2.3,0.1C148.4,197.5,139.4,197.5,130.5,197.5z M143.7,106.9c-14.7,0-29.4,0-44,0
			c-7.3,0-13.1,5.4-13,12.9c0.3,18,0.3,35.9,0,53.9c-0.1,7.7,5.9,13.1,13,13c6.9-0.1,13.7,0,20.6,0c22.5,0,45,0,67.5,0
			c7.2,0,12.7-5,12.7-11.5c0-18.9,0-37.9,0-56.8c0-1.5-0.4-3.2-1.1-4.5c-2.4-4.8-6.5-6.9-11.7-6.9
			C173.1,106.9,158.4,106.9,143.7,106.9z M204.7,105.8c0-1.6-1-2.7-2.6-2.7c-1.6,0-2.7,1.1-2.8,2.6c0,1.6,1.1,2.7,2.7,2.8
			C203.5,108.5,204.6,107.3,204.7,105.8z M87.6,188.3c0-1.4-1.4-2.7-2.8-2.7c-1.5,0-2.6,1.2-2.6,2.8c0,1.6,1.2,2.8,2.7,2.7
			C86.4,191.1,87.7,189.7,87.6,188.3z M84.9,103.1c-1.6,0-2.7,1.1-2.7,2.7c0,1.6,1.2,2.8,2.8,2.7c1.6-0.1,2.5-1.1,2.6-2.7
			C87.8,104.3,86.5,103.1,84.9,103.1z M204.7,188.4c0-1.5-1.2-2.9-2.6-2.9c-1.4,0-2.8,1.3-2.8,2.7c0,1.6,0.9,2.5,2.5,2.6
			C203.5,191.1,204.6,190,204.7,188.4z"/>
		<path class="st1" d="M117.7,270c-2.8,0-5.6,0-8.4,0c-5.8,0-10-4.1-10-10c-0.1-7.5-0.1-15.1-0.1-22.6c0-5.5,0-11,0-16.5
			c0-2.3,0.1-4.6,0.1-7c0.1-5.7,4.2-9.8,9.9-9.9c7.1-0.1,14.2-0.1,21.3-0.1c8.9,0,17.9,0,26.8,0c6.8,0,13.5,0,20.3,0.1
			c6.4,0,10.4,4,10.5,10.5c0,2.1,0.1,4.2,0.1,6.3c0,5.5,0,11-0.1,16.5c0,7.2,0,14.4-0.1,21.6c0,7.2-3.8,11-11,11
			c-2.5,0-4.9,0-7.4,0.1C152.4,270,135,270,117.7,270z M143.5,260.5c8.7,0,17.4-0.2,26.1,0.1c4.5,0.1,7.7-2.8,7.7-7.4
			c0.1-10.8,0.1-21.5,0-32.3c0-4.7-2.8-7.3-7.5-7.4c-17.4,0-34.9,0-52.3,0c-4.6,0-7.4,2.7-7.5,7.2c-0.1,10.9-0.1,21.8,0,32.7
			c0,4.4,2.9,7.1,7.3,7.1C126.1,260.5,134.8,260.5,143.5,260.5z M180.5,209.7c-1.6,0-2.7,1.2-2.6,2.8c0.1,1.6,1,2.5,2.6,2.6
			c1.5,0.1,2.7-1.2,2.7-2.7C183.2,210.8,182,209.7,180.5,209.7z M183.2,262.7c0-1.5-1.3-2.7-2.8-2.6c-1.5,0.1-2.7,1.3-2.5,2.9
			c0.1,1.6,1.1,2.5,2.7,2.5C182.1,265.4,183.3,264.2,183.2,262.7z M107.4,215.1c1.4,0.1,2.9-1.3,2.8-2.7c-0.1-1.5-0.9-2.6-2.5-2.7
			c-1.5-0.1-2.9,1-2.9,2.5C104.7,213.7,105.9,215,107.4,215.1z M107.6,260.1c-1.5-0.1-2.8,1.2-2.9,2.6c-0.1,1.4,1.3,2.8,2.7,2.8
			c1.6,0,2.5-1,2.8-2.5C110.4,261.6,109.1,260.1,107.6,260.1z"/>
		<path class="st1" d="M169.7,273.6h11c-0.1,5.9-1.1,10.9-3.6,15.5c-2,3.5-4.5,6.7-6.9,9.9c-0.5,0.6-1.6,1.1-2.4,1.1
			c-16.2,0.1-32.4,0.1-48.6,0c-0.7,0-1.7-0.3-2.2-0.8c-6.7-6.7-10.4-14.7-10.8-24.2c0-0.3,0.1-0.5,0.1-0.9h11.5
			c11.5-0.1,23-0.1,34.5-0.1C158,274,163.9,274,169.7,273.6z"/>
		<path class="st2" d="M99.1,220.9c0,5.5,0,11,0,16.5c-4.5,2.8-9,5.7-13.6,8.4c-0.7,0.5-1.6,0.7-2.4,1.1c-0.6-4.5-1.2-9-1.8-13.9
			c-2.5,4.8-4.7,9.1-7,13.5c-0.9-1.1-1.9-2.1-2.6-3.3c-4-6.5-7.9-13-11.8-19.5c-0.4-0.6-0.6-1.4-0.8-2.1c4.5-1.1,8.4-3.5,11.5-7
			c1.3,1.9,2.7,3.7,3.9,5.7c1.9,3,3.7,6.1,5.5,9.2c0.9,1.7,1.8,2,3.5,0.8c2.6-1.8,5.5-3.3,8.2-5c1.9,2.5,3.8,5,5.8,7.6
			c0.2-0.1,0.2-0.1,0.4-0.1v-11.5C98.3,221.2,98.7,221,99.1,220.9z"/>
		<path class="st3" d="M188.3,237.4c0-5.5,0-10.9,0.1-16.4c0.4,0,0.8,0,1.2,0.1c0,3.9,0,7.9,0,11.8c0.2,0.1,0.2,0.1,0.4,0.1
			c2-2.8,4-5.6,6-8.4c0.1,0.3,0.1,0.8,0.4,0.9c3.2,2.1,6.4,4.1,9.7,6.2c3.6-5.9,7-11.6,10.4-17.3c3,3.9,7.1,6.2,11.8,7.4
			c-2.6,4.5-5.2,9-7.9,13.5c-1.8,3-3.7,5.8-5.5,8.8c-2.8-3.9-5.6-7.8-8.5-11.7c-0.3,0.1-0.3,0.1-0.6,0.2v15.5
			c-2.6-1.5-5.3-3-7.9-4.6C194.9,241.4,191.6,239.4,188.3,237.4z"/>
		<path class="st4" d="M143.4,311.9c-11.4,0-22.8,0-34.2,0c-0.9,0-2.1,0.1-2.8-0.4c-0.9-0.7-2.1-1.9-2.1-2.8c0-1,1.3-2,2.2-2.8
			c0.6-0.4,1.6-0.4,2.4-0.4c22.9,0,45.8,0,68.7,0c0.6,0,1.2,0,1.8,0.1c2.1,0.4,3.3,1.6,3.1,3.2c-0.2,2-1.7,2.7-3.4,3
			c-0.6,0.1-1.2,0-1.8,0C166,311.9,154.7,311.9,143.4,311.9z"/>
		<path class="st1" d="M70.8,214.7c-3.1,3.5-6.9,5.8-11.5,7c-2.9-0.2-5.9-0.1-8.7-0.8c-4.6-1.1-8-4.2-10.6-8.4
			c1.2-0.8,2.4-1.5,3.6-2.2c8.3-4.5,16.6-9,24.9-13.6c1.2-0.6,2.4-1.2,3.8-1.8c3,6.2,2.8,12.1-0.4,18
			C71.5,213.4,71.1,214.1,70.8,214.7z M61.8,209.5c0-1.4-1.2-2.8-2.6-2.8c-1.4,0-2.7,1.3-2.8,2.7c0,1.5,1.2,2.8,2.6,2.8
			C60.4,212.2,61.7,210.9,61.8,209.5z"/>
		<path class="st1" d="M228.5,221.7c-4.8-1.1-8.8-3.5-11.9-7.4c-3.6-5.6-4.5-11.5-2.1-17.7c0.2-0.4,0.4-0.9,0.6-1.3
			c0.1-0.1,0.2-0.2,0.4-0.4c1.1,0.6,2.4,1.1,3.6,1.7c1.5,0.9,3.1,1.8,4.6,2.6c6.8,3.7,13.6,7.3,20.4,11c1.1,0.7,2.2,1.3,3.5,2.1
			c-2.7,4.7-6.6,7.7-11.7,8.8C233.5,221.8,231,221.6,228.5,221.7z M230.6,209.5c0-1.4-1.2-2.8-2.6-2.9c-1.4,0-2.7,1.2-2.8,2.7
			c0,1.6,1.1,2.8,2.6,2.8C229.2,212.2,230.5,210.9,230.6,209.5z"/>
		<path class="st5" d="M143.9,324.7c-7.7,0-15.4,0-23.1,0c-0.7,0-1.5,0-2.2-0.2c-1.6-0.5-2.7-1.5-2.5-3.3c0.2-1.7,1.4-2.4,3-2.7
			c0.6-0.1,1.2-0.1,1.8-0.1c15.4,0,30.7,0,46.1,0c0.3,0,0.7,0,1,0c2.3,0.1,3.9,1.4,3.9,3.1c0,1.6-1.8,3.1-4,3.1
			C160,324.7,151.9,324.7,143.9,324.7z"/>
		<path class="st6" d="M56.5,193.7c-0.2-2-0.1-4.2-0.8-5.9c-1.2-2.8-3.1-5.3-4.6-8c-0.4-0.6-0.8-1.3-1.1-2c-2-3.9-0.5-6.5,3.9-6.9
			c8.8-0.8,17.3,7.9,15.8,16.4c-0.5,2.7-1.9,4.9-3.9,6.9c-0.5,0-1,0-1.5,0C61.6,194,59.1,193.9,56.5,193.7z"/>
		<path class="st6" d="M222.1,194.5c-4.2-4.3-5.6-9.2-2.9-14.8c2.8-5.8,7.9-8.3,14.1-8.8c1.1-0.1,2.3,0.3,3.3,0.8
			c2,1,2.6,2.5,1.8,4.6c-0.6,1.5-1.5,2.9-2.3,4.3c-1.2,2.1-2.6,4.2-3.8,6.3c-1.2,2.1-1.6,4.3-1.2,6.7
			C228,192.9,225,193.6,222.1,194.5z"/>
		<path class="st6" d="M43.6,206.2c-12.1,2.8-18.3-9.8-15.3-18.4c0.9-2.6,2.5-4.7,5.1-5.9c1.8-0.9,3.3-0.6,4.3,1
			c1,1.5,1.8,3.2,2.6,4.9c1,2.1,1.7,4.4,3,6.3c1,1.6,2.7,2.8,4.1,4.2C46.1,201,44.9,203.6,43.6,206.2z"/>
		<path class="st6" d="M240.1,198.4c1.5-1.5,3.4-2.8,4.4-4.6c1.6-2.5,2.6-5.4,3.8-8.2c2.3-5.2,5.2-5.8,9.4-0.7
			c3.2,3.9,3,10.9,0,15.7c-3.1,5-7.5,6.7-13.6,5.6C242.8,203.6,241.4,201,240.1,198.4z"/>
		<path class="st6" d="M140.6,81.9c-3.9-1.6-6.3-4.3-6.8-8.5c-0.4-3.8,1-6.9,4.1-9.1c4.6-3.3,11.1-2,14.2,2.9c3,4.9,1.2,11.4-4,14.1
			c-0.5,0.3-1.1,0.5-1.7,0.8C144.5,82,142.6,82,140.6,81.9z"/>
		<path class="st7" d="M169.7,274c-5.8,0-11.6,0.1-17.4,0.1c-11.5,0-23,0-34.5,0c0-1.3,0-2.7,0-4c17.3,0,34.6,0,52,0
			C169.7,271.4,169.7,272.7,169.7,274z"/>
		<path class="st8" d="M42.3,209c1.7-3.6,3.4-7.1,5.1-10.7c2.8-1.5,5.5-2.9,8.3-4.4c0.2-0.1,0.5-0.1,0.8-0.2
			c2.6,0.2,5.2,0.3,7.7,0.5c0.5,0,1,0,1.5,0c0.9,0.8,1.8,1.6,2.8,2.5c-8.3,4.5-16.6,9-24.9,13.6C42.4,209.1,43.4,210.1,42.3,209z"/>
		<path class="st8" d="M240.1,198.4c1.4,2.6,2.7,5.2,4.1,7.9c0,1.3,0,2.7,0,4c-6.8-3.7-13.6-7.3-20.4-11c-1.6-0.8-3.1-1.8-4.6-2.6
			c1-0.7,2-1.4,3-2.1c2.9-0.9,5.9-1.6,9-0.8C234.1,195.3,237.1,196.8,240.1,198.4z"/>
		<path class="st2" d="M157.3,204c-8.9,0-17.9,0-26.8,0c0-2.2,0-4.3,0-6.5c8.9,0,17.8,0,26.8,0C157.3,199.6,157.3,201.8,157.3,204z"
			/>
		<path class="st5" d="M143,337.5c-3.3,0-6.6,0-9.9,0c-2.3,0-3.9-1.3-3.9-3.1c0-1.7,1.5-3,3.7-3.1c6.7-0.1,13.4-0.1,20.1,0
			c2.2,0,3.7,1.4,3.8,3c0,1.8-1.5,3.1-3.8,3.1C149.7,337.5,146.3,337.5,143,337.5z"/>
		<path class="st9" d="M140.6,81.9c2,0,3.9,0.1,5.9,0.1c1.1,4.7,2.2,9.4,3.4,14.1c-4.1,0-8.2,0-12.4,0c0.7-3.3,1.4-6.5,2.1-9.8
			C140,84.9,140.3,83.4,140.6,81.9z"/>
		<path class="st10" d="M97.9,221.3v11.5c-0.2,0.1-0.2,0.1-0.4,0.1c-1.9-2.5-3.8-5-5.8-7.6c-1.1-1.6-2.1-3.3-3.4-4.9
			c-0.8-1-0.7-1.7,0.1-2.7c2.3-2.9,5.3-4.6,9.4-5.2C97.9,215.7,97.9,218.5,97.9,221.3z"/>
		<path class="st10" d="M196.1,224.6c-2,2.8-4,5.6-6.1,8.4c-0.2-0.1-0.2-0.1-0.4-0.1c0-4,0-7.9,0-11.9c0-2.7,0-5.3,0-8.2
			c4.6,0.6,7.8,2.8,10.3,6.6C198.7,221.1,197.4,222.8,196.1,224.6z"/>
		<path class="st11" d="M206.1,248v-15.6c0.3-0.1,0.3-0.1,0.6-0.2c2.8,3.9,5.7,7.8,8.5,11.7C213.5,247.9,209.8,249.6,206.1,248z"/>
		<path class="st12" d="M74.5,246.5c2.3-4.3,4.5-8.7,7-13.5c0.6,4.9,1.2,9.4,1.8,13.9C81.1,249.4,76.4,249.2,74.5,246.5z"/>
		<path class="st13" d="M143.7,106.9c14.7,0,29.4,0,44,0c5.2,0,9.3,2.1,11.7,6.9c0.7,1.4,1.1,3,1.1,4.5c0.1,18.9,0.1,37.9,0,56.8
			c0,6.5-5.6,11.5-12.7,11.5c-22.5,0-45,0-67.5,0c-6.9,0-13.7-0.1-20.6,0c-7.2,0.1-13.2-5.3-13-13c0.3-18,0.3-35.9,0-53.9
			c-0.1-7.5,5.7-12.9,13-12.9C114.3,106.9,129,106.9,143.7,106.9z M132.6,184.3c1.4,0,2.8,0,4.1,0.1c0.7,0,1.4,0,2,0
			c1.4,0,2.8,0,4.1,0.1c0.6,0,1.1,0,1.7,0c1.4,0,2.7,0,4.1,0c0.6,0,1.1,0,1.7,0c1.5,0,3,0,4.5-0.1c0.7-0.1,1.4-0.3,2-0.4
			c2.8-1,4.5-3.2,4.5-5.7c-0.1-2.4-1.8-4.5-4.5-5.4c-0.7-0.1-1.3-0.3-2-0.4c-1.5,0-3,0-4.5,0c-0.6,0-1.1,0-1.7,0c-1.3,0-2.7,0-4,0
			c-0.6,0-1.1,0-1.7,0c-1.4,0-2.7,0-4.1,0c-0.7,0-1.3,0-2,0c-0.1,0-0.3,0-0.4,0c-1.2,0-2.5,0-3.7,0c-0.7,0.2-1.4,0.4-2.1,0.6
			c-2.4,0.8-3.8,2.5-4,5.1c-0.2,2.5,1.2,4.4,4.1,5.7C131.2,184,131.9,184.1,132.6,184.3z M197,145.9c-0.1-14.2-11.6-25.5-25.8-25.4
			c-13.9,0.1-25.1,11.7-25,25.8c0.1,14.1,11.6,25.3,26,25.2C185.8,171.4,197.1,159.7,197,145.9z M142.1,146.1
			c0-14.1-11.3-25.5-25.2-25.6c-14.1-0.1-25.5,11.3-25.6,25.4c0,14.1,11.2,25.5,25.2,25.5C130.7,171.5,142.1,160.3,142.1,146.1z"/>
		<path class="st14" d="M204.7,105.8c0,1.5-1.2,2.7-2.7,2.7c-1.5,0-2.7-1.2-2.7-2.8c0-1.5,1.1-2.6,2.8-2.6
			C203.6,103.1,204.7,104.2,204.7,105.8z"/>
		<path class="st7" d="M87.6,188.3c0,1.4-1.2,2.8-2.7,2.8c-1.5,0-2.7-1.2-2.7-2.7c0-1.6,1.1-2.8,2.6-2.8
			C86.3,185.6,87.6,186.9,87.6,188.3z"/>
		<path class="st14" d="M84.9,103.1c1.6,0,2.8,1.2,2.7,2.7c-0.1,1.6-1,2.5-2.6,2.7c-1.5,0.1-2.7-1.1-2.8-2.7
			C82.2,104.2,83.3,103.1,84.9,103.1z"/>
		<path class="st7" d="M204.7,188.4c0,1.6-1.2,2.6-2.9,2.5c-1.6-0.1-2.5-1-2.5-2.6c0-1.4,1.3-2.8,2.8-2.7
			C203.5,185.6,204.7,186.9,204.7,188.4z"/>
		<path class="st15" d="M143.5,260.5c-8.7,0-17.4,0-26.1,0c-4.4,0-7.3-2.7-7.3-7.1c-0.1-10.9-0.1-21.8,0-32.7c0-4.5,2.9-7.2,7.5-7.2
			c17.4,0,34.9,0,52.3,0c4.7,0,7.5,2.6,7.5,7.4c0.1,10.8,0.1,21.5,0,32.3c0,4.6-3.2,7.5-7.7,7.4
			C160.9,260.3,152.2,260.5,143.5,260.5z M174.2,239.8c0-1,0-2.1,0-3.1c0-4.7,0.1-9.3,0.1-14c0-3.9-2.3-6.3-6.2-6.3
			c-16.2,0-32.4,0-48.6,0c-3.7,0-6.3,2-6.4,5.8c-0.2,4.9,0,9.7,0.1,14.6c0,1.2,0,2.3,0,3.5c0,3.8-0.3,7.5,0,11.3
			c0.3,4.6,2.4,6.2,7,6.2c10.6,0,21.3,0,31.9,0c5.5,0,11,0,16.5,0c3.5,0,5.8-2.4,5.9-5.8c0-3.8,0-7.7,0-11.5
			C174.2,240.1,174.2,239.9,174.2,239.8z"/>
		<path class="st14" d="M180.5,209.7c1.6,0,2.7,1.1,2.8,2.6c0,1.5-1.2,2.8-2.7,2.7c-1.6-0.1-2.5-1-2.6-2.6
			C177.7,211,178.9,209.8,180.5,209.7z"/>
		<path class="st14" d="M183.2,262.7c0,1.5-1.1,2.8-2.7,2.7c-1.6,0-2.5-0.9-2.7-2.5c-0.1-1.5,1-2.8,2.5-2.9
			C181.9,260,183.2,261.2,183.2,262.7z"/>
		<path class="st14" d="M107.4,215.1c-1.4-0.1-2.7-1.4-2.6-2.9c0.1-1.5,1.4-2.6,2.9-2.5c1.6,0.1,2.4,1.2,2.5,2.7
			C110.3,213.8,108.8,215.2,107.4,215.1z"/>
		<path class="st14" d="M107.6,260.1c1.4,0.1,2.8,1.5,2.6,2.9c-0.3,1.5-1.1,2.5-2.8,2.5c-1.4,0-2.8-1.4-2.7-2.8
			C104.8,261.2,106.2,260,107.6,260.1z"/>
		<path class="st14" d="M61.8,209.5c0,1.4-1.4,2.7-2.8,2.7c-1.5,0-2.7-1.3-2.6-2.8c0-1.4,1.4-2.8,2.8-2.7
			C60.5,206.7,61.8,208,61.8,209.5z"/>
		<path class="st14" d="M230.6,209.5c0,1.4-1.4,2.7-2.8,2.7c-1.5,0-2.6-1.3-2.6-2.8c0-1.5,1.3-2.8,2.8-2.7
			C229.4,206.7,230.6,208,230.6,209.5z"/>
		<path class="st1" d="M197,145.9c0.1,13.8-11.2,25.4-24.8,25.5c-14.4,0.1-25.9-11-26-25.2c-0.1-14.1,11.1-25.7,25-25.8
			C185.4,120.4,196.9,131.7,197,145.9z M171.5,165.8c10.9,0,19.8-8.8,19.9-19.7c0.1-10.9-8.8-19.8-19.7-19.9
			c-10.9-0.1-19.8,8.6-19.9,19.4C151.8,156.9,160.4,165.8,171.5,165.8z"/>
		<path class="st1" d="M142.1,146.1c0,14.2-11.4,25.4-25.6,25.4c-14,0-25.2-11.4-25.2-25.5c0-14.1,11.5-25.5,25.6-25.4
			C130.8,120.6,142.1,132.1,142.1,146.1z M116.5,165.8c10.9,0.1,19.8-8.5,20.1-19.5c0.3-10.8-8.6-20-19.5-20.1
			c-11-0.2-20,8.6-20.2,19.6C96.7,156.6,105.5,165.7,116.5,165.8z"/>
		<path class="st16" d="M150.5,172.3c1.5,0,3,0,4.5,0c0,4,0,8,0,12c-1.5,0-3,0-4.5,0.1C150.5,180.4,150.5,176.3,150.5,172.3z"/>
		<path class="st16" d="M144.5,172.3c1.3,0,2.7,0,4,0c0,4,0,8.1,0,12.1c-1.4,0-2.7,0-4.1,0C144.5,180.4,144.5,176.3,144.5,172.3z"/>
		<path class="st16" d="M142.9,184.4c-1.4,0-2.8,0-4.1-0.1c0-4,0-8,0-12c1.4,0,2.7,0,4.1,0C142.8,176.3,142.9,180.4,142.9,184.4z"/>
		<path class="st17" d="M132.5,172.4c1.2,0,2.5,0,3.7,0c0.1,0.1,0.2,0.3,0.3,0.4c0,3.7,0,7.4,0,11.1c-1.3,0-2.7,0-4,0
			C132.6,180,132.6,176.2,132.5,172.4z"/>
		<path class="st8" d="M156.8,172.8c2.7,0.9,4.4,3,4.5,5.4c0.1,2.4-1.7,4.7-4.5,5.7C156.9,180.2,156.8,176.5,156.8,172.8z"/>
		<path class="st8" d="M130.6,183.8c-2.9-1.3-4.3-3.2-4.1-5.7c0.2-2.6,1.6-4.3,4-5.1C130.5,176.6,130.5,180.2,130.6,183.8z"/>
		<path class="st18" d="M136.6,183.9c0-3.7,0-7.4,0-11.1c0-0.1,0.1-0.3,0.1-0.4c0.7,0,1.3,0,2,0c0,4,0,8,0,12c-0.7,0-1.4,0-2,0
			C136.7,184.2,136.6,184,136.6,183.9z"/>
		<path class="st18" d="M157,183.9c-0.7,0.1-1.3,0.3-2,0.4c0-4,0-8,0-12c0.7,0.1,1.3,0.3,2,0.4C157,178.9,157,177.8,157,183.9z"/>
		<path class="st18" d="M130.6,183.8c0-3.6-0.1-7.2-0.1-10.8c0.7-0.2,1.4-0.4,2.1-0.6c0,3.8,0.1,7.7,0.1,11.5c0,0.1,0,0.3-0.1,0.4
			C131.9,184.1,131.2,184,130.6,183.8z"/>
		<path class="st6" d="M148.6,184.4c0-4,0-8.1,0-12.1c0.6,0,1.1,0,1.7,0c0,4,0,8,0,12.1C149.7,184.4,149.2,184.4,148.6,184.4z"/>
		<path class="st6" d="M142.9,184.4c0-4,0-8.1,0-12.1c0.6,0,1.1,0,1.7,0c0,4,0,8,0,12.1C144,184.4,143.4,184.4,142.9,184.4z"/>
		<path class="st16" d="M132.6,184.3c0-0.1,0-0.3,0.1-0.4c1.3,0,2.7,0,4,0c0,0.2,0.1,0.3,0.1,0.5
			C135.3,184.3,133.9,184.3,132.6,184.3z"/>
		<path class="st16" d="M136.7,172.3c0,0.1,0,0.3-0.1,0.4c-0.1-0.1-0.2-0.3-0.3-0.4C136.4,172.3,136.6,172.3,136.7,172.3z"/>
		<path class="st17" d="M174.2,240.3c0,3.8,0.1,7.7,0,11.5c0,3.4-2.4,5.8-5.9,5.8c-5.5,0.1-11,0-16.5,0c-10.6,0-21.3,0-31.9,0
			c-4.6,0-6.7-1.6-7-6.2c-0.3-3.7,0-7.5,0-11.3c0,0,0,0.1,0,0.1c0.2-0.1,0.4-0.3,0.6-0.4c0.4,0,0.8,0,1.2,0c0.1,0.2,0.2,0.5,0.3,0.7
			c0.2-0.2,0.3-0.5,0.5-0.7c1.7-0.2,3.6,0.5,4.9-1.2c1,0,1.5-0.8,1.2-2c1.5-2.6,3.1-5.1,4.8-8c0.5,0.7,0.9,1.2,1.2,1.7
			c1.5,2.6,3,5.2,4.5,7.8c1.1,1.9,2.3,1.9,3.4-0.1c1-1.7,1.9-3.4,3-5.3c0.4,0.4,0.6,0.7,0.7,1c1.9,5.3,5.7,7,11,6.1
			c0.6-0.1,1.6,0.6,2,1.3c1.2,2.2,2.2,4.6,3.3,6.8c0.3,0.5,1,1.2,1.5,1.2c0.5,0,1.2-0.6,1.5-1.2c0.6-0.9,0.9-2,1.4-3
			c1.6-3.6,3.3-7.2,5.1-11.1c0.6,1.3,1.1,2.2,1.6,3.1c0.5,0.8,0.8,1.9,1.5,2.4c0.8,0.5,2,0.3,3,0.5c0.1,0.2,0.2,0.5,0.3,0.7
			c0.2-0.2,0.3-0.5,0.5-0.7c0.5,0,1.1,0,1.6,0C173.9,240,174.1,240.1,174.2,240.3z"/>
		<path class="st19" d="M113.1,236.7c0-4.9-0.3-9.7-0.1-14.6c0.2-3.7,2.7-5.8,6.4-5.8c16.2,0,32.4,0,48.6,0c3.9,0,6.2,2.3,6.2,6.3
			c0,4.7,0,9.3-0.1,14c-0.5,0-1.1-0.1-1.6,0c-2,0.3-3.2-0.4-3.9-2.4c-0.5-1.5-1.3-2.9-2.1-4.2c-0.8-1.5-1.8-1.5-2.8-0.1
			c-0.3,0.5-0.5,1-0.7,1.5c-1.9,4.1-3.7,8.3-5.8,12.7c-1.1-2.2-2-4-2.8-5.9c-0.5-1.2-1.4-1.7-2.7-1.7c-1.9,0.1-3.7,0.1-5.6,0
			c-0.8-0.1-1.8-0.6-2.2-1.3c-1.3-1.8-2.3-3.7-3.5-5.6c-1.3-2.1-2.3-2-3.5,0.2c-0.9,1.6-1.9,3.3-2.9,5.2c-2-3.4-3.8-6.5-5.7-9.6
			c-1.1-1.8-2-1.8-3.2,0c-1.4,2.1-3,4.2-4,6.5C119.5,235.6,117.1,237.4,113.1,236.7z"/>
		<path class="st20" d="M113.1,236.5c4,0.7,6.5-1.1,8.1-4.7c1-2.3,2.6-4.3,4-6.5c1.2-1.8,2.1-1.8,3.2,0c1.9,3.1,3.7,6.2,5.7,9.6
			c1.1-1.9,2-3.6,2.9-5.2c1.2-2.2,2.2-2.2,3.5-0.2c1.2,1.8,2.2,3.8,3.5,5.6c0.5,0.6,1.4,1.2,2.2,1.3c1.8,0.2,3.7,0.1,5.6,0
			c1.3,0,2.2,0.5,2.7,1.7c0.8,1.9,1.8,3.7,2.8,5.9c2-4.5,3.9-8.6,5.8-12.7c0.2-0.5,0.4-1,0.7-1.5c0.9-1.4,1.9-1.4,2.8,0.1
			c0.8,1.4,1.6,2.8,2.1,4.2c0.7,1.9,1.9,2.7,3.9,2.4c0.5-0.1,1.1,0,1.6,0c0,1,0,2.1,0,3.1c0,0,0,0,0,0c-0.7,0-1.3,0-2,0
			c-0.3,0-0.6,0-0.8,0c-1-0.1-2.2,0-3-0.5c-0.7-0.4-1.1-1.5-1.5-2.4c-0.5-0.9-0.9-1.8-1.6-3.1c-1.8,3.9-3.4,7.5-5.1,11.1
			c-0.5,1-0.8,2-1.4,3c-0.3,0.5-1,1.2-1.5,1.2c-0.5,0-1.2-0.6-1.5-1.2c-1.2-2.3-2.1-4.6-3.3-6.8c-0.3-0.6-1.4-1.4-2-1.3
			c-5.3,0.9-9.2-0.8-11-6.1c-0.1-0.3-0.4-0.5-0.7-1c-1.1,1.9-2,3.6-3,5.3c-1.1,2-2.3,2-3.4,0.1c-1.5-2.6-3-5.2-4.5-7.8
			c-0.3-0.5-0.7-1-1.2-1.7c-1.7,2.8-3.2,5.4-4.8,8c-0.4,0.7-0.8,1.4-1.2,2c-1.3,1.7-3.2,1.1-4.9,1.2c-0.4,0-0.8,0-1.3,0
			c-0.4,0.1-1,0.3-1.4,0.4c0,0,0,0,0,0c0,0,0-0.1,0-0.1C113,238.8,113.1,237.6,113.1,236.5z"/>
		<path class="st19" d="M173.7,239.8c0.1,0,0.3,0,0.4,0c0,0.2,0,0.3,0,0.5C174.1,240.1,173.9,240,173.7,239.8z"/>
		<path class="st21" d="M171.5,165.8c-11.2-0.1-19.7-8.9-19.7-20.2c0.1-10.7,9-19.5,19.9-19.4c10.9,0.1,19.7,9.1,19.7,19.9
			C191.3,157,182.4,165.9,171.5,165.8z M181.6,146c0-5.7-4.6-10.3-10.3-10.3c-5.7,0-10.3,4.6-10.3,10.3c0,5.8,4.6,10.4,10.5,10.4
			C177.1,156.3,181.6,151.7,181.6,146z"/>
		<path class="st21" d="M116.5,165.8c-10.9-0.1-19.7-9.2-19.6-20c0.2-11,9.2-19.8,20.2-19.6c10.8,0.2,19.7,9.4,19.5,20.1
			C136.3,157.3,127.4,166,116.5,165.8z M116.8,156.4c5.7,0,10.3-4.6,10.3-10.4c0-5.7-4.6-10.3-10.3-10.3c-5.8,0-10.5,4.8-10.4,10.5
			C106.4,151.9,111.1,156.4,116.8,156.4z"/>
		<path class="st19" d="M120.6,238.6c0.4-0.7,0.8-1.4,1.2-2C122.1,237.8,121.6,238.6,120.6,238.6z"/>
		<path class="st19" d="M114.9,239.6c0.3,0,0.6,0,0.8,0c-0.2,0.2-0.3,0.5-0.5,0.7C115.1,240,115,239.8,114.9,239.6z"/>
		<path class="st19" d="M171.3,239.6c0.3,0,0.6,0,0.8,0c-0.2,0.2-0.3,0.5-0.5,0.7C171.5,240,171.4,239.8,171.3,239.6z"/>
		<path class="st19" d="M113,240.2c0.2-0.1,0.4-0.3,0.6-0.4C113.4,240,113.2,240.1,113,240.2z"/>
		<path class="st22" d="M181.6,146c0,5.8-4.5,10.4-10.2,10.4c-5.9,0.1-10.5-4.5-10.5-10.4c0-5.7,4.6-10.3,10.3-10.3
			C177,135.6,181.6,140.2,181.6,146z"/>
		<path class="st11" d="M116.8,156.4c-5.7,0-10.4-4.5-10.5-10.2c-0.1-5.7,4.6-10.5,10.4-10.5c5.7,0,10.3,4.6,10.3,10.3
			C127.1,151.7,122.5,156.3,116.8,156.4z"/>
	</g>
	<g>
		<path class="st23" d="M341.1,114h41l9.6,55.5l18.4-55.5h32.2l-32.7,98.7h-41l-9.5-55.5l-18.3,55.5h-32.5L341.1,114z"/>
		<path class="st24" d="M562.6,139.1h-32V139c0.1-0.5,0.9-1.9,2.5-4.1c1.5-2.2,3.3-4.7,5.4-7.5c2.1-2.7,4.2-5.4,6.4-7.9
			c2.2-2.5,4.1-4.4,5.7-5.5h84.8c-0.8,1.7-2.1,4-4,6.8c-1.9,2.8-3.8,5.6-5.9,8.3c-2.1,2.7-4.1,5.1-6.1,7.1c-2,2-3.4,3-4.3,3h-20
			l-24.4,73.6h-32.5L562.6,139.1z"/>
		<path class="st25" d="M388,226.9l68.8-67l-20.5-69.1h48.9l7.4,34.1l36.5-34.1h48.9L505.8,160l24.5,67h-48.7l-11.9-32l-32.9,32H388
			z"/>
	</g>
	<path class="st26" d="M341.1,115.8h41l9.6,55.5l18.4-55.5h32.2l-32.7,98.7h-41l-9.5-55.5l-18.3,55.5h-32.5L341.1,115.8z"/>
	<path class="st26" d="M388,225.7l68.8-67l-20.5-69.1h48.9l7.4,34.1l36.5-34.1h48.9l-72.4,69.1l24.5,67h-48.7l-11.9-32l-32.9,32H388
		z"/>
	<path class="st26" d="M561.4,139.1h-32V139c0.1-0.5,0.9-1.9,2.5-4.1c1.5-2.2,3.3-4.7,5.4-7.5c2.1-2.7,4.2-5.4,6.4-7.9
		c2.2-2.5,4.1-4.4,5.7-5.5h84.8c-0.8,1.7-2.1,4-4,6.8c-1.9,2.8-3.8,5.6-5.9,8.3c-2.1,2.7-4.1,5.1-6.1,7.1c-2,2-3.4,3-4.3,3h-20
		l-24.4,73.6H537L561.4,139.1z"/>
	<g>
		<path d="M211.5,273h60.4c-0.5,1-1.3,2.3-2.4,3.8c-1.1,1.5-2.3,3.1-3.6,4.7c-1.3,1.6-2.7,3.2-4.1,4.8c-1.4,1.6-2.7,2.9-3.8,3.9h3.4
			l-18.7,16.8h16.6c-0.2,0.4-0.6,1.1-1.2,2.1c-0.6,1-1.2,2-1.8,3.1c-0.6,1.1-1.2,2.1-1.8,3c-0.5,0.9-0.9,1.5-1.1,1.8
			c-0.7,0.8-1.7,1.7-2.9,2.8c-1.2,1.1-2.4,2.1-3.6,3.1c-1.2,1-2.3,1.8-3.3,2.4c-1,0.6-1.5,1-1.7,1h-50.9L211.5,273z M193.1,324.9
			h48.9c0.1,0,0.7-0.3,1.6-1c0.9-0.6,1.9-1.4,3.1-2.4c1.1-0.9,2.3-1.9,3.4-3c1.1-1,2-2,2.6-2.8l-0.2,0.2c0.1-0.2,0.4-0.7,0.9-1.4
			c0.4-0.7,0.9-1.5,1.4-2.4c0.5-0.8,1-1.7,1.5-2.5c0.5-0.8,0.8-1.4,1-1.7h-17.8l18.6-16.7h-28.8l-0.9,0.7l0.5-1.1h25.8
			c0.7,0,1.7-0.7,3.2-2c1.4-1.3,2.9-2.9,4.5-4.7c1.6-1.8,3.1-3.6,4.5-5.5c1.4-1.9,2.4-3.4,3-4.5h-57.4L193.1,324.9z M214.3,276.8
			h51.2c-0.4,0.8-1.1,1.9-2.1,3.2c-1,1.3-2.1,2.6-3.2,3.8c-1.1,1.2-2.2,2.3-3.3,3.3c-1.1,0.9-1.8,1.4-2.3,1.4H227l-5.1,13.4l8.5-7.9
			h20.8l-12.8,11.6h-17.9l-2,5.1h34.4c-0.1,0.1-0.2,0.4-0.5,0.8c-0.2,0.4-0.5,0.8-0.8,1.2c-0.3,0.4-0.5,0.8-0.8,1.1
			c-0.2,0.3-0.4,0.5-0.5,0.6c-0.5,0.7-1.3,1.5-2.2,2.4c-0.9,0.9-1.8,1.8-2.7,2.7c-0.9,0.8-1.7,1.5-2.4,2.1c-0.7,0.6-1.1,0.9-1.2,0.9
			h-45.1L214.3,276.8z M253.5,316.9l0.3-0.3l-0.3,0.4V316.9z"/>
		<path d="M322.9,304c-2.8,4-5.6,7.4-8.4,10.2s-5.9,5.1-9.1,6.9c-3.3,1.8-6.9,3.1-10.8,3.9c-3.9,0.8-8.4,1.2-13.4,1.2h-28l20.3-53.2
			H315c5,0,8.6,1.3,10.9,3.9c2.2,2.6,3.4,5.9,3.4,9.9c0,2.7-0.5,5.5-1.6,8.6c-1.1,3-2.7,5.9-4.8,8.7L322.9,304z M321.7,303.4
			c2-2.7,3.5-5.5,4.6-8.4c1.1-2.9,1.6-5.6,1.6-8.2c0-3.6-1-6.6-3.1-9c-2-2.4-5.3-3.6-9.9-3.6h-40.8L255,324.9h26.1
			c4.9,0,9.2-0.4,13.1-1.2c3.8-0.8,7.4-2.1,10.5-3.8c3.2-1.7,6.1-3.9,8.9-6.7c2.7-2.7,5.5-6.1,8.2-9.9L321.7,303.4z M311.8,311.3
			c-2.6,2.6-5.4,4.7-8.4,6.4c-3,1.7-6.3,2.9-10,3.6c-3.6,0.7-7.8,1.1-12.4,1.1h-22.3l17.3-45.5H315c3.6,0,6.2,0.9,7.8,2.8
			c1.6,1.9,2.4,4.3,2.4,7.2c0,2.3-0.5,4.7-1.5,7.4c-1,2.6-2.4,5.2-4.2,7.6C317,305.5,314.4,308.7,311.8,311.3z M280.6,310.7h2.3
			c1.6,0,3.4-0.3,5.3-0.9s3.8-1.4,5.6-2.4c1.8-1,3.5-2.1,5.1-3.3c1.6-1.2,2.8-2.4,3.8-3.7c0.3-0.5,0.7-1.1,1.2-1.6
			c0.4-0.5,0.8-1.2,1.2-1.9c0.3-0.9,0.7-1.8,1.1-2.7c0.4-0.9,0.6-1.7,0.6-2.4c0-1-0.2-1.8-0.7-2.5c-0.4-0.6-1.2-1-2.4-1h-14.4
			L280.6,310.7z M303.5,291.1c0.3,0,0.4,0.3,0.4,0.8c0,0.3-0.1,0.8-0.3,1.4c-0.2,0.6-0.4,1.2-0.7,1.8c-0.1,0.1-0.2,0.3-0.3,0.5
			c-0.1,0.2-0.1,0.3-0.2,0.5c-0.2,0.5-0.5,1-0.8,1.4s-0.6,0.8-1,1.2c-0.1,0.1-0.1,0.2-0.2,0.3c0,0-0.1,0.1-0.2,0.3
			c-0.7,1.1-1.7,2.1-3,3.1c-1.3,1-2.6,1.9-4.1,2.8c-1.5,0.8-3,1.5-4.5,2.1c-1.5,0.6-3,1-4.4,1.2l6.4-17.1H303.5z M302.1,293.3
			c0.1-0.3,0.2-0.7,0.3-1h-10.6l-5.3,14.1c1.2-0.3,2.4-0.7,3.7-1.3c1.2-0.6,2.4-1.2,3.6-1.9c1.1-0.7,2.2-1.5,3.1-2.3
			c0.9-0.8,1.7-1.6,2.3-2.4c0.1-0.3,0.3-0.5,0.4-0.7c0.1-0.2,0.3-0.4,0.4-0.5c0.3-0.3,0.5-0.7,0.8-1.1c0.2-0.4,0.5-0.7,0.7-1.1
			c0.1-0.1,0.2-0.3,0.3-0.5c0-0.2,0.1-0.4,0.3-0.6l-0.2,0.3C301.8,294,302,293.6,302.1,293.3z M299.8,297.6v-0.1l-0.1,0.2
			L299.8,297.6z"/>
		<path d="M338,273h25.4c-2.5,7-4.5,12.4-5.9,16.3c-1.4,3.9-2.4,6.8-3,8.6c-0.6,1.9-1,3-1.2,3.5c-0.1,0.4-0.2,0.7-0.2,0.9
			c-0.3,1-0.4,1.7-0.4,2.2c0,0.7,0.2,1.3,0.5,1.8c0.3,0.5,0.7,0.7,1.1,0.7h4.4c0.9,0,1.7-0.2,2.6-0.7c0.8-0.4,1.6-1,2.3-1.7
			c0.7-0.7,1.3-1.4,1.8-2.1c0.5-0.7,0.9-1.4,1.3-2l-0.2,0.6L377,273h25.5l-9.9,26.3c-1.7,4.3-3.4,8.2-5.1,11.5
			c-1.7,3.3-3.7,6.2-6,8.4c-2.3,2.3-4.9,4-7.9,5.2c-3,1.2-6.5,1.8-10.7,1.8h-10.4c-5,0-9.2-0.3-12.5-1c-3.3-0.6-6-1.6-7.9-3
			c-2-1.3-3.4-3.1-4.2-5.2c-0.8-2.1-1.3-4.7-1.3-7.7c0-0.7,0-1.4,0-2.1c0-0.7,0.2-1.6,0.4-2.7c0.2-1.1,0.4-2.1,0.7-3
			c0.3-0.8,0.6-1.7,0.9-2.6v0.1c0.2-0.7,0.4-1.4,0.5-1.9c0.1-0.5,0.3-1.2,0.6-2L338,273z M331,295.5c-0.2,0.8-0.4,1.5-0.6,2.1
			s-0.4,1.3-0.6,2c-0.8,2.3-1.4,4.1-1.7,5.4c-0.2,1.6-0.3,3.1-0.3,4.4c0,2.7,0.4,5.1,1.2,7.1c0.8,2,2.1,3.6,4,4.8
			c1.9,1.2,4.4,2.1,7.5,2.7c3.1,0.6,7.1,0.9,11.8,0.9h10.4c3.9,0,7.4-0.6,10.2-1.7c2.9-1.1,5.4-2.8,7.6-5c2.2-2.2,4.1-4.9,5.8-8.1
			c1.7-3.2,3.3-7,4.8-11.2l9.4-24.6h-22.8l-10.2,27.2l0.1-0.4c-0.4,0.7-0.9,1.4-1.5,2.3c-0.6,0.8-1.2,1.6-2,2.3
			c-0.8,0.7-1.6,1.3-2.6,1.8c-0.9,0.5-1.9,0.7-3,0.7h-4.4c-0.7,0-1.4-0.3-2-1c-0.6-0.6-0.9-1.6-0.9-2.8c0-0.5,0.2-1.3,0.5-2.5
			c0-0.1,0.1-0.4,0.2-0.9c0.1-0.4,0.5-1.5,1.1-3.3c0.6-1.8,1.5-4.5,2.8-8.1c1.3-3.6,3.1-8.7,5.4-15.3h-22.6L331,295.5z M340.8,276.8
			h17c-2.1,5.8-3.7,10.3-4.8,13.6c-1.1,3.2-2,5.7-2.6,7.3c-0.6,1.6-0.9,2.6-1,3.1c-0.1,0.4-0.2,0.8-0.2,1c-0.3,1-0.4,1.9-0.4,2.7
			c0,2,0.6,3.6,1.7,4.7c1.1,1.1,2.4,1.7,3.8,1.7h4.4c1.4,0,2.7-0.3,4-0.9c1.2-0.6,2.3-1.3,3.3-2.2c0.9-0.9,1.8-1.8,2.5-2.8
			c0.7-1,1.3-1.9,1.7-2.7l9.6-25.5h17l-8,21.3c-1.5,3.9-3,7.4-4.5,10.4c-1.5,3-3.3,5.5-5.3,7.6c-2,2-4.3,3.6-6.9,4.7
			c-2.6,1.1-5.7,1.6-9.2,1.6h-10.4c-4.2,0-7.7-0.2-10.5-0.7c-2.8-0.5-5-1.2-6.7-2.3c-1.7-1.1-2.9-2.4-3.6-4s-1.1-3.6-1.1-5.9
			c0-0.7,0-1.3,0-1.9c0-0.6,0.1-1.3,0.3-2.1c0.3-1.5,0.8-3,1.3-4.5c0.5-1.4,1.1-3.1,1.6-5.1L340.8,276.8z"/>
		<path d="M395,301.3c0-3.2,0.7-6.5,2.2-9.8c1.5-3.3,3.4-6.4,5.9-9.1c2.5-2.7,5.3-5,8.6-6.7c3.3-1.7,6.7-2.6,10.3-2.6h44.6
			c-3.3,4.1-6.3,7.8-9.2,11c-2.8,3.3-5.6,6-8.4,8.2h-24.5c-0.7,0-1.6,0.6-2.5,1.9c-0.9,1.2-1.7,2.6-2.2,4v-0.2
			c-0.3,0.9-0.5,1.7-0.5,2.4c0,0.7,0.2,1.4,0.5,2.2c0.3,0.8,0.8,1.5,1.3,2.2c0.5,0.7,1.1,1.2,1.7,1.7c0.6,0.4,1.2,0.7,1.8,0.7h28.8
			c-2.5,3.5-5.2,7.1-8,10.5c-2.8,3.5-5.7,6.4-8.7,8.7h-8.4c-4.1,0-8.2-0.4-12.2-1.1c-4-0.7-7.5-2-10.6-3.9c-3.1-1.9-5.6-4.4-7.6-7.6
			c-1.9-3.2-2.9-7.2-2.9-12.1V301.3z M396.3,301.5c0,4.6,0.9,8.4,2.8,11.4c1.8,3,4.3,5.4,7.3,7.2c3,1.8,6.4,3,10.3,3.7
			c3.8,0.7,7.7,1.1,11.7,1.1h8c2.7-2,5.2-4.5,7.7-7.6c2.4-3,4.8-6.1,7-9.2h-26.3c-0.7,0-1.5-0.3-2.3-0.8c-0.8-0.5-1.5-1.2-2.1-2
			c-0.6-0.8-1.2-1.7-1.6-2.6c-0.4-0.9-0.7-1.8-0.7-2.6c0-0.3,0.1-0.7,0.2-1.2c0.1-0.5,0.3-1.1,0.4-1.7v0.1c0.3-0.7,0.6-1.5,1.1-2.3
			c0.5-0.8,1-1.5,1.6-2.1c0.6-0.6,1.1-1.2,1.7-1.6c0.6-0.4,1.1-0.6,1.7-0.6h24.1c2.5-2.1,4.9-4.6,7.4-7.4c2.4-2.8,5.1-5.9,7.9-9.4
			h-41.9c-3.5,0-6.8,0.8-9.9,2.5c-3.1,1.7-5.9,3.8-8.2,6.4c-2.4,2.6-4.2,5.5-5.6,8.7c-1.4,3.2-2.1,6.3-2.1,9.4V301.5z M399,301.5
			v-0.2c0-2.7,0.6-5.6,1.9-8.5c1.2-2.9,2.9-5.5,5-7.9c2.1-2.4,4.5-4.3,7.3-5.8c2.8-1.5,5.7-2.3,8.9-2.3h36.5
			c-1.7,2.2-3.5,4.3-5.2,6.2c-1.7,1.9-3.6,3.7-5.7,5.5h-23.1c-0.7,0-1.5,0.3-2.4,0.8c-0.9,0.5-1.7,1.1-2.5,1.9
			c-0.8,0.8-1.5,1.7-2.2,2.7c-0.7,1-1.2,2-1.5,3c-0.5,1.3-0.7,2.5-0.7,3.5c0,1.1,0.3,2.2,0.9,3.5c0.6,1.2,1.4,2.4,2.3,3.4
			c0.9,1,1.9,1.9,3,2.6c1.1,0.7,2.1,1,3.1,1h21.2c-1.3,1.9-2.9,3.9-4.6,6c-1.7,2-3.7,3.9-6,5.7h-7c-3.6,0-7.2-0.3-10.7-1
			c-3.5-0.6-6.7-1.7-9.4-3.3c-2.8-1.6-5-3.7-6.7-6.4C399.9,309.1,399,305.6,399,301.5z"/>
		<path d="M518.4,326.2h-23.8l-1-4.8c-1.1,1.1-2.1,2.2-3.1,3.1c-1,0.9-1.8,1.5-2.3,1.7H445c0.1-0.9,0.3-1.8,0.5-2.5
			c0.2-0.7,0.4-1.5,0.6-2.2l32.6-41.4c0.3-0.5,0.9-1.1,1.7-1.9c0.8-0.8,1.7-1.6,2.7-2.4c1-0.8,1.9-1.4,2.9-2c1-0.5,1.8-0.8,2.5-0.8
			h14.9c1.4,0,2.6,0.4,3.6,1.2c1,0.8,1.8,1.8,2.4,3c0.6,1.2,1.1,2.4,1.5,3.6c0.3,1.2,0.6,2.3,0.8,3.2L518.4,326.2z M510.7,285.7
			c-0.2-0.9-0.5-2.1-0.9-3.4c-0.4-1.3-0.8-2.5-1.4-3.7c-0.6-1.2-1.3-2.2-2.1-3c-0.8-0.8-1.8-1.3-3-1.3h-14.9c-0.6,0-1.4,0.3-2.3,0.8
			c-0.9,0.5-1.8,1.2-2.7,1.9c-0.9,0.7-1.7,1.4-2.4,2.2c-0.7,0.7-1.2,1.3-1.4,1.7l0.2-0.4l-32.6,41.3c-0.1,0.5-0.3,1-0.4,1.5
			c-0.1,0.5-0.2,1.1-0.4,1.7h41.5c0.5-0.3,1.4-1,2.7-2.2c1.2-1.2,2.5-2.5,3.7-3.9l1.2,6.1h21.2L510.7,285.7z M513.8,322.4h-15.8
			l-1.9-9.7c-0.1,0.3-0.6,1-1.3,2c-0.7,1-1.6,2-2.5,3.1s-1.8,2.1-2.7,3c-0.9,0.9-1.6,1.5-2,1.7h-37.7c0.1-0.7,0.2-0.9,0.2-0.6v-0.3
			l32-39.4c0.2-0.3,0.6-0.8,1.1-1.4c0.5-0.6,1.1-1.1,1.8-1.7c0.7-0.6,1.3-1.1,2-1.5c0.6-0.4,1.2-0.7,1.6-0.7h14.9
			c0.6,0,1.2,0.3,1.7,1c0.5,0.6,0.9,1.4,1.3,2.4c0.4,0.9,0.7,1.9,0.9,2.9c0.2,1,0.5,1.8,0.7,2.5L513.8,322.4z M478,309.9v0.9H496
			l-3.1-20.2L478,309.9z M491.1,297.2l1.8,11h-10.3L491.1,297.2z M485.2,307h6.1l-1-6.5L485.2,307z"/>
		<path d="M521.1,326.2l12.5-33.9h-14.8v-4.4c0.1-0.3,0.6-1.1,1.6-2.4c1-1.3,2.2-2.8,3.6-4.5c1.4-1.6,2.8-3.2,4.3-4.8
			c1.5-1.5,2.7-2.6,3.7-3.2h51.3c-0.7,1.3-1.8,3-3.3,5.2c-1.5,2.2-3.2,4.3-5,6.4c-1.8,2.1-3.4,3.9-5,5.4c-1.6,1.5-2.7,2.3-3.5,2.3
			h-7.6l-12.6,33.9H521.1z M545.3,324.9l12.5-33.8h8.6c0.7,0,1.7-0.7,3.1-2c1.4-1.3,2.9-2.9,4.4-4.7c1.5-1.8,2.9-3.6,4.3-5.5
			c1.4-1.9,2.3-3.4,2.9-4.5h-48.7c-0.9,0.6-2.1,1.6-3.5,3c-1.4,1.4-2.7,2.8-4,4.3c-1.3,1.5-2.4,2.9-3.3,4.1
			c-0.9,1.2-1.4,1.9-1.5,2.2v3.2h15.4l-12.6,33.8H545.3z M526.6,322.4l12.6-33.9h-16.6v-0.1c0.1-0.2,0.5-0.8,1.3-1.9
			c0.8-1.1,1.7-2.2,2.8-3.5c1.1-1.2,2.2-2.4,3.3-3.6c1.1-1.2,2.1-2,2.9-2.6H577c-0.4,0.8-1.1,1.9-2.1,3.2c-1,1.3-2,2.6-3.1,3.8
			c-1.1,1.2-2.2,2.3-3.2,3.3c-1,0.9-1.7,1.4-2.2,1.4h-10.3l-12.6,33.9H526.6z"/>
		<path d="M564.8,326.2l20.8-53.2h25.7l-20.8,53.2H564.8z M589.6,324.9l20-50.6h-23.2l-19.9,50.6H589.6z M570.1,322.4l18.3-45.5
			h17.8l-18.2,45.5H570.1z"/>
		<path d="M672.8,298.3c-0.6,3.6-1.9,7.1-3.9,10.5c-2,3.4-4.5,6.4-7.5,8.9c-3,2.6-6.3,4.6-10.1,6.2c-3.7,1.5-7.6,2.3-11.6,2.3h-10.4
			c-3.8,0-7.4-0.3-10.6-1c-3.3-0.6-6.1-1.7-8.5-3.3c-2.4-1.5-4.3-3.6-5.6-6.2c-1.3-2.6-2-5.9-2-9.8c0-0.7,0-1.4,0.1-2.3
			c0.1-0.8,0.2-1.8,0.4-2.8l-0.1,0.1c0.5-3.5,1.7-7,3.7-10.3c2-3.3,4.4-6.3,7.3-8.9c2.9-2.6,6.1-4.7,9.7-6.3
			c3.5-1.6,7.1-2.4,10.7-2.4h13.2c4,0,7.6,0.4,10.8,1.1c3.2,0.7,5.9,1.9,8.1,3.5c2.2,1.6,3.9,3.6,5.1,6.1c1.2,2.5,1.8,5.5,1.8,9.1
			c0,0.9,0,1.8-0.1,2.7c-0.1,0.9-0.2,1.8-0.4,2.9V298.3z M671.5,298.2c0.2-1.1,0.3-2,0.4-2.9c0.1-0.8,0.1-1.7,0.1-2.6
			c0-3.3-0.6-6.1-1.7-8.4c-1.1-2.3-2.8-4.2-4.9-5.7c-2.1-1.5-4.7-2.6-7.7-3.3c-3-0.7-6.4-1.1-10.2-1.1h-13.2
			c-3.5,0-6.9,0.8-10.3,2.3c-3.4,1.5-6.5,3.6-9.2,6.1c-2.8,2.5-5.1,5.4-7,8.6c-1.9,3.2-3.1,6.5-3.6,9.8c-0.1,0.8-0.2,1.6-0.3,2.4
			c0,0.8,0,1.6,0,2.4c0,3.7,0.6,6.7,1.9,9.2c1.3,2.4,3,4.4,5.3,5.8c2.3,1.4,5,2.5,8.1,3.1c3.1,0.6,6.5,0.9,10.1,0.9h10.4
			c3.9,0,7.6-0.7,11.2-2.2c3.6-1.5,6.8-3.4,9.7-5.9c2.9-2.5,5.3-5.3,7.2-8.6c1.9-3.2,3.2-6.6,3.8-10.1V298.2z M668.9,297.7
			c-0.5,3.2-1.7,6.3-3.5,9.3c-1.8,3-4,5.6-6.6,7.9c-2.6,2.3-5.6,4.1-8.9,5.5c-3.3,1.4-6.7,2.1-10.3,2.1h-10.4
			c-3.3,0-6.3-0.3-9.1-0.8c-2.8-0.5-5.2-1.4-7.2-2.7c-2-1.3-3.6-3-4.8-5.1c-1.1-2.1-1.7-4.8-1.7-8c0-1.3,0.1-2.8,0.3-4.4
			c0.5-3.1,1.6-6.1,3.3-9.1c1.7-3,3.9-5.6,6.4-7.9c2.5-2.3,5.3-4.2,8.4-5.6c3.1-1.4,6.2-2.1,9.3-2.1h13.2c6.8,0,12.1,1.2,15.9,3.7
			c3.9,2.5,5.8,6.6,5.8,12.2c0,0.8,0,1.6-0.1,2.4C669.1,295.9,669,296.8,668.9,297.7z M623.5,300.3v0.6v0.5c0,1.1,0.2,2.2,0.6,3.3
			s1,2.1,1.7,3c0.7,0.9,1.5,1.6,2.5,2.2c1,0.6,2,0.9,3.1,0.9h7.3c0.5,0,1.3-0.3,2.4-0.8c1.1-0.5,2.2-1.1,3.4-1.9
			c1.2-0.8,2.4-1.7,3.5-2.7c1.1-1,1.9-2,2.5-3c0.5-0.6,0.9-1.2,1-1.9l0.4-0.8c0-0.3,0-0.6,0-0.7c0-0.1,0-0.2,0-0.1
			c0.1-0.5,0.1-0.9,0.2-1.4c0-0.5,0.1-1,0.1-1.5c0-0.9-0.1-1.9-0.3-2.8c-0.2-0.9-0.5-1.7-1.1-2.4s-1.3-1.3-2.2-1.7
			c-0.9-0.4-2.1-0.7-3.6-0.7h-8.7c-0.9,0-2,0.3-3.1,0.8c-1.1,0.5-2.2,1.1-3.3,1.9c-1.1,0.8-2.1,1.7-3,2.7c-0.9,1-1.6,2-2.2,3
			c-0.3,0.7-0.6,1.3-0.9,1.9C623.7,299.2,623.6,299.8,623.5,300.3z M626.2,300.5c0.1-0.7,0.4-1.6,1-2.7v0.2c0.5-0.8,1.1-1.6,1.8-2.5
			c0.7-0.8,1.5-1.6,2.4-2.3c0.8-0.7,1.7-1.2,2.5-1.6c0.8-0.4,1.6-0.6,2.4-0.6h8.7c1.9,0,3.1,0.5,3.7,1.5c0.6,1,0.9,2.1,0.9,3.4
			l-0.4,3.1l-0.2,0.5c-0.1,0.1-0.2,0.4-0.3,0.7s-0.3,0.6-0.7,1c-0.4,0.8-1.1,1.6-2,2.5c-0.9,0.8-1.8,1.6-2.8,2.3
			c-0.9,0.7-1.8,1.2-2.7,1.6c-0.9,0.4-1.5,0.6-1.9,0.6h-7.3c-0.7,0-1.4-0.2-2.1-0.6c-0.6-0.4-1.2-0.9-1.7-1.6
			c-0.5-0.7-0.8-1.4-1.1-2.2c-0.3-0.8-0.4-1.6-0.4-2.4v-0.3c-0.1,0.1-0.1,0.3-0.2,0.4c-0.1,0.1-0.2,0.3-0.5,0.6L626.2,300.5z
			 M626.4,303c0.7-0.6,1-1.1,1-1.6c0,1.3,0.4,2.5,1.2,3.7c0.8,1.2,1.7,1.8,2.8,1.8h7.3c0.3,0,0.9-0.2,1.6-0.6
			c0.7-0.4,1.5-0.8,2.4-1.4c0.8-0.6,1.6-1.2,2.4-2c0.8-0.7,1.4-1.5,1.8-2.2c0.5-0.9,0.7-1.4,0.8-1.5l0.3-0.6h0.1l-0.2,0.5
			c0-0.3,0-0.4,0.1-0.5c0.1-0.5,0.1-1,0.2-1.5c0-0.5,0-0.9,0-1.2c0-0.9-0.2-1.8-0.6-2.6c-0.4-0.8-1.2-1.2-2.6-1.2h-8.7
			c-0.6,0-1.3,0.2-2,0.6c-0.7,0.4-1.5,0.9-2.3,1.5c-0.8,0.6-1.5,1.3-2.1,2.1c-0.6,0.8-1.2,1.5-1.6,2.3v-0.1
			c-0.2,0.5-0.4,0.9-0.6,1.3c-0.2,0.4-0.3,0.7-0.3,0.9L626.4,303z"/>
		<path d="M664.7,326.2l20.4-53.2H713l3,15l5.8-15h25.7l-20.4,53.2h-27.9l-3-14.9l-5.6,14.9H664.7z M689.7,324.9l7-18.5l3.7,18.5
			h25.8l19.4-50.6h-22.9l-7.1,18.6l-3.7-18.6H686l-19.4,50.6H689.7z M670.6,322.4l17.4-45.5h21.8l5.1,25.6l9.8-25.6h17.2l-17.5,45.5
			h-21.8l-5-25.6l-9.7,25.6H670.6z"/>
	</g>
</g>
<g id="Layer_2" class="st27">
</g>
</svg>
